<?xml version="1.0" encoding="utf-8"?>
<!-- Generator: Adobe Illustrator 27.9.0, SVG Export Plug-In . SVG Version: 6.00 Build 0)  -->
<svg version="1.1" id="Calque_1" xmlns="http://www.w3.org/2000/svg" xmlns:xlink="http://www.w3.org/1999/xlink" x="0px" y="0px"
	 viewBox="0 0 1920 1080" style="enable-background:new 0 0 1920 1080;" xml:space="preserve">
<g>
	<path d="M1920,417.99c-101.82,0-203.64-0.02-305.46,0.08c-3.61,0-6.11-0.99-8.67-3.57c-21.1-21.32-42.41-42.44-63.5-63.77
		c-2.47-2.5-4.97-3.81-8.35-3.74c-1.17,0.03-2.33,0-3.5,0c-88.99,0-177.98,0.02-266.97-0.08c-3.6,0-6.11,0.98-8.67,3.56
		c-27.83,28.03-55.83,55.88-83.64,83.92c-2.71,2.74-5.4,3.69-9.13,3.67c-24.33-0.14-48.66-0.06-72.99-0.09
		c-2.64,0-4.73-0.07-6.35,3.04c-1.89,3.64-7.93,4-10.82,1.38c-2.9-2.63-2.88-8.19,0.05-11.36c2.6-2.82,7.22-3.09,9.76,0.52
		c2.51,3.56,5.47,3.46,8.92,3.45c23.5-0.03,46.99-0.1,70.49,0.07c3.41,0.03,5.51-1.04,7.88-3.45c9.61-9.77,19.63-19.13,29.34-28.8
		c6.41-6.38,12.46-13.1,18.82-19.52c11.95-12.08,23.92-24.16,36.13-35.97c1.9-1.84,5.15-3.21,7.78-3.22
		c91.82-0.16,183.64-0.09,275.47-0.29c3.6-0.01,5.42,1.82,7.33,3.72c20.71,20.53,41.51,40.98,61.76,61.96
		c4.08,4.23,7.84,5.58,13.35,5.57c100.32-0.13,200.64-0.1,300.96-0.1C1920,415.99,1920,416.99,1920,417.99z"/>
	<path d="M0,662.01c101.82,0,203.64,0.02,305.46-0.08c3.61,0,6.11,0.99,8.67,3.57c21.1,21.32,42.41,42.44,63.5,63.77
		c2.47,2.5,4.97,3.81,8.35,3.74c1.17-0.03,2.33,0,3.5,0c88.99,0,177.98-0.02,266.97,0.08c3.6,0,6.11-0.98,8.67-3.56
		c27.83-28.03,55.83-55.88,83.64-83.92c2.71-2.74,5.4-3.69,9.13-3.67c24.33,0.14,48.66,0.06,72.99,0.09c2.64,0,4.73,0.07,6.35-3.04
		c1.9-3.64,7.93-4,10.82-1.38c2.9,2.63,2.88,8.19-0.05,11.36c-2.6,2.82-7.22,3.09-9.76-0.51c-2.51-3.56-5.47-3.46-8.92-3.45
		c-23.5,0.03-47,0.1-70.49-0.07c-3.41-0.03-5.51,1.04-7.88,3.45c-9.61,9.77-19.63,19.13-29.34,28.8
		c-6.41,6.38-12.47,13.1-18.82,19.52c-11.95,12.08-23.92,24.16-36.13,35.97c-1.9,1.84-5.15,3.22-7.78,3.22
		c-91.82,0.16-183.64,0.09-275.47,0.29c-3.6,0.01-5.42-1.82-7.33-3.72c-20.71-20.53-41.51-40.98-61.76-61.96
		c-4.08-4.23-7.84-5.58-13.35-5.57c-100.32,0.13-200.64,0.1-300.97,0.1C0,664.01,0,663.01,0,662.01z"/>
	<path d="M0,501c55.15,0,110.3-0.02,165.45,0.03c4.82,0,8.56-0.94,11.74-5.38c3.06-4.26,7.79-7.29,11.59-11.07
		c3.92-3.89,7.54-8.08,11.38-12.05c3.98-4.12,8.06-8.15,12.1-12.21c4.09-4.12,8.13-8.3,12.3-12.33c3.97-3.84,8.14-7.48,12.11-11.31
		c3.77-3.63,7.4-7.39,11.1-11.1c4.57-4.58,9.19-9.13,13.71-13.76c3.62-3.72,7.01-7.66,10.71-11.3c5.12-5.04,10.31-10.01,15.74-14.7
		c1.12-0.97,3.42-0.8,5.18-0.8c73.48-0.04,146.96-0.3,220.44,0.29c9.94,0.08,15.59-4.39,21.52-10.54
		c6.72-6.97,13.62-13.77,20.46-20.62c6.52-6.53,13.03-13.06,19.59-19.55c4.59-4.54,9.12-9.15,13.93-13.45
		c1.1-0.98,3.24-1.11,4.89-1.12c56.65-0.05,113.3-0.06,169.95-0.01c3.35,0,6.11,0.06,8.35-3.5c2.31-3.65,7.25-3.4,10.39-0.37
		c3.26,3.15,3.16,7.91-0.23,10.91c-3.21,2.84-8.18,2.87-10.39-0.83c-1.98-3.32-4.44-3.26-7.45-3.26
		c-55.32,0.03-110.64,0.14-165.95-0.15c-6.2-0.03-9.95,2.54-13.79,6.55c-7.13,7.47-14.49,14.71-21.77,22.03
		c-6.29,6.32-12.6,12.61-18.9,18.91c-5.53,5.54-10.94,11.21-16.69,16.5c-1.2,1.1-3.66,1.14-5.54,1.14
		C446.29,388,370.64,388.02,295,387.9c-3.99-0.01-6.7,1.16-9.5,3.98c-36.19,36.38-72.54,72.62-108.76,108.98
		c-2.3,2.31-4.57,3.21-7.8,3.21C112.63,503.97,56.31,504,0,504C0,503,0,502,0,501z"/>
	<path d="M1920,579c-55.15,0-110.3,0.02-165.45-0.03c-4.82,0-8.56,0.94-11.74,5.37c-3.06,4.27-7.79,7.29-11.59,11.07
		c-3.92,3.89-7.54,8.08-11.38,12.05c-3.98,4.12-8.06,8.15-12.1,12.21c-4.09,4.12-8.13,8.3-12.3,12.33
		c-3.97,3.84-8.14,7.48-12.11,11.31c-3.77,3.63-7.4,7.39-11.1,11.1c-4.57,4.58-9.19,9.13-13.71,13.76
		c-3.62,3.72-7.01,7.66-10.71,11.3c-5.12,5.04-10.31,10.01-15.74,14.7c-1.12,0.97-3.42,0.8-5.18,0.8
		c-73.48,0.04-146.96,0.3-220.44-0.29c-9.94-0.08-15.6,4.39-21.52,10.53c-6.72,6.97-13.62,13.77-20.46,20.62
		c-6.52,6.53-13.03,13.06-19.59,19.55c-4.59,4.54-9.12,9.15-13.93,13.45c-1.1,0.98-3.23,1.12-4.89,1.12
		c-56.65,0.05-113.3,0.06-169.95,0.02c-3.35,0-6.11-0.07-8.35,3.49c-2.3,3.65-7.25,3.4-10.39,0.38c-3.26-3.15-3.16-7.9,0.23-10.91
		c3.21-2.84,8.18-2.87,10.39,0.83c1.98,3.32,4.44,3.26,7.45,3.26c55.32-0.03,110.64-0.14,165.95,0.15c6.2,0.03,9.95-2.53,13.79-6.55
		c7.13-7.47,14.49-14.71,21.77-22.03c6.29-6.32,12.6-12.61,18.9-18.91c5.53-5.54,10.94-11.21,16.69-16.5
		c1.2-1.1,3.66-1.14,5.54-1.14c75.65-0.05,151.29-0.08,226.94,0.05c3.99,0.01,6.7-1.16,9.5-3.98
		c36.19-36.38,72.54-72.62,108.76-108.98c2.3-2.31,4.57-3.22,7.8-3.21c56.31,0.09,112.63,0.07,168.95,0.07
		C1920,577,1920,578,1920,579z"/>
	<path d="M0,598c75.5,0,151-0.16,226.49,0.24c8.03,0.04,13.31-2.18,18.79-7.78c24.82-25.38,50.04-50.36,75.28-75.33
		c1.74-1.72,4.78-3,7.22-3.01c55.5-0.17,111-0.17,166.5,0c2.44,0.01,5.45,1.33,7.21,3.05c16.36,16.04,32.5,32.31,48.7,48.51
		c17.15,17.14,34.24,34.33,51.53,51.33c1.65,1.62,4.49,2.85,6.78,2.86c46,0.16,92,0.11,138,0.15c2.56,0,4.41-0.28,6.21-2.78
		c2.87-3.98,8.13-3.84,11.22-0.44c3.2,3.52,2.64,7.99-1.39,11.12c-3.05,2.38-7.73,0.99-10.67-2.3c-1.34-1.5-4.04-2.51-6.14-2.52
		c-22.5-0.18-45-0.11-67.5-0.11c-23.5,0-47,0.09-70.5-0.13c-2.44-0.02-5.48-1.3-7.21-3.02c-33.36-33.11-66.58-66.36-99.74-99.66
		c-2.28-2.29-4.52-3.27-7.78-3.26c-54.67,0.1-109.33,0.1-164,0c-3.25-0.01-5.5,0.95-7.79,3.25c-26.44,26.59-53.01,53.06-79.44,79.65
		c-2.29,2.3-4.54,3.25-7.79,3.24C155.99,600.99,77.99,601,0,601C0,600,0,599,0,598z"/>
	<path d="M1920,482c-75.5,0-151,0.16-226.49-0.24c-8.03-0.04-13.31,2.18-18.79,7.78c-24.82,25.38-50.04,50.36-75.28,75.33
		c-1.74,1.72-4.78,3-7.22,3.01c-55.5,0.17-111,0.17-166.5,0c-2.44-0.01-5.45-1.33-7.21-3.05c-16.36-16.04-32.5-32.31-48.7-48.51
		c-17.15-17.14-34.24-34.33-51.53-51.33c-1.65-1.62-4.49-2.85-6.78-2.86c-46-0.16-92-0.11-138-0.15c-2.56,0-4.41,0.28-6.21,2.78
		c-2.87,3.98-8.13,3.84-11.22,0.44c-3.2-3.52-2.64-7.99,1.39-11.12c3.05-2.38,7.73-0.99,10.67,2.3c1.34,1.5,4.04,2.51,6.14,2.52
		c22.5,0.18,45,0.11,67.5,0.11c23.5,0,47-0.09,70.5,0.13c2.44,0.02,5.48,1.3,7.21,3.02c33.36,33.11,66.58,66.36,99.74,99.66
		c2.28,2.29,4.52,3.27,7.78,3.26c54.67-0.1,109.33-0.1,164,0c3.25,0.01,5.5-0.95,7.79-3.25c26.44-26.59,53.01-53.06,79.44-79.65
		c2.29-2.3,4.54-3.25,7.79-3.24c77.99,0.09,155.99,0.07,233.98,0.07C1920,480,1920,481,1920,482z"/>
	<path d="M0,526c63.66,0,127.33,0,190.99,0.01c2.47,0,4.25-0.34,6.3-2.49c11.56-12.1,23.47-23.88,35.37-35.66
		c12.52-12.4,25.24-24.6,37.74-37.02c10.97-10.91,21.64-22.12,32.73-32.9c2.1-2.04,5.55-3.78,8.38-3.79
		c75.33-0.2,150.66-0.19,225.99-0.04c2.29,0,5.14,1.25,6.78,2.87c18.17,17.89,36.1,36.02,54.29,53.89c1.75,1.72,4.78,2.99,7.23,3
		c42.5,0.18,85,0.12,127.49,0.16c2.75,0,4.76-0.2,6.54-3.06c1.99-3.2,6.3-3.86,9.51-0.17c2.51,2.88,2.35,6.56-0.7,9.04
		c-2.74,2.22-6.42,1.32-9-1.39c-1.3-1.36-3.71-2.34-5.63-2.34c-43-0.13-86-0.13-128.99-0.03c-3.25,0.01-5.51-0.93-7.8-3.24
		c-17.82-18-35.72-35.93-53.78-53.69c-1.75-1.72-4.78-3.01-7.22-3.02c-74.83-0.16-149.66-0.16-224.49,0
		c-2.44,0.01-5.47,1.31-7.21,3.04c-35.36,35.12-70.58,70.36-105.75,105.67c-2.29,2.3-4.54,3.25-7.79,3.24
		C127.32,527.98,63.66,528,0,528C0,527.33,0,526.67,0,526z"/>
	<path d="M1920,554c-63.66,0-127.32,0-190.97-0.01c-2.47,0-4.25,0.33-6.3,2.48c-11.57,12.1-23.47,23.88-35.37,35.66
		c-12.52,12.4-25.23,24.6-37.73,37.02c-10.97,10.9-21.82,21.94-32.6,33.04c-2.56,2.64-5.25,3.9-9,3.89
		c-74.99-0.08-149.98-0.08-224.97,0c-3.24,0-5.51-0.9-7.8-3.22c-17.82-18-35.71-35.93-53.78-53.69c-1.75-1.72-4.77-3.02-7.21-3.03
		c-42.49-0.18-84.99-0.12-127.48-0.15c-2.7,0-4.86,0.01-6.54,3.02c-1.83,3.3-6.39,3.19-9.25,0.46c-2.87-2.74-2.85-6.39,0.05-9.02
		c2.84-2.58,6.63-1.79,9.37,1.17c1.27,1.37,3.73,2.28,5.65,2.28c42.83,0.13,85.66,0.14,128.48,0.01c3.65-0.01,6.11,1.09,8.64,3.64
		c17.69,17.9,35.47,35.7,53.42,53.34c1.74,1.71,4.79,2.98,7.23,2.98c74.82,0.16,149.65,0.16,224.47,0c2.43-0.01,5.46-1.33,7.2-3.06
		c35.35-35.11,70.58-70.36,105.74-105.66c2.29-2.3,4.55-3.23,7.8-3.23c63.65,0.09,127.31,0.07,190.96,0.07
		C1920,552.67,1920,553.33,1920,554z"/>
	<path d="M1920,461.99c-89.14,0-178.28,0.02-267.42-0.07c-3.59,0-6.11,0.94-8.68,3.53c-24.16,24.38-48.52,48.56-72.67,72.95
		c-2.71,2.74-5.4,3.67-9.13,3.66c-35.49-0.11-70.98-0.06-106.47-0.09c-2.35,0-3.99,0.32-5.79,2.46c-1.39,1.65-4.96,2.6-7.13,2.07
		c-1.6-0.39-3.43-3.64-3.45-5.64c-0.03-1.88,1.9-5.08,3.44-5.4c2.23-0.45,4.93,1.04,7.34,1.95c1.77,0.66,3.39,2.46,5.09,2.46
		c35.99,0.15,71.98,0.17,107.97-0.02c2.49-0.01,5.46-1.37,7.35-3.06c3.97-3.57,7.24-7.89,11.02-11.68
		c3.89-3.91,8.16-7.45,12.06-11.37c6.61-6.64,13.01-13.49,19.6-20.16c3.42-3.46,7.12-6.66,10.59-10.07
		c7.21-7.08,14.26-14.32,21.6-21.26c1.39-1.32,3.81-2.18,5.76-2.18c58.98-0.11,117.96-0.09,176.94-0.09c30.66,0,61.32,0,91.97,0
		C1920,460.66,1920,461.33,1920,461.99z"/>
	<path d="M0,618.01c89.14,0,178.28-0.02,267.42,0.07c3.59,0,6.11-0.94,8.68-3.53c24.16-24.38,48.52-48.56,72.67-72.95
		c2.71-2.74,5.4-3.67,9.13-3.66c35.49,0.11,70.98,0.06,106.47,0.09c2.35,0,3.99-0.32,5.79-2.46c1.38-1.65,4.96-2.6,7.13-2.07
		c1.6,0.39,3.43,3.64,3.45,5.64c0.03,1.88-1.9,5.08-3.44,5.4c-2.23,0.45-4.93-1.04-7.34-1.95c-1.77-0.66-3.39-2.46-5.09-2.46
		c-35.99-0.15-71.98-0.17-107.97,0.02c-2.49,0.01-5.46,1.37-7.35,3.06c-3.97,3.57-7.24,7.89-11.02,11.68
		c-3.89,3.91-8.16,7.45-12.06,11.37c-6.61,6.64-13.01,13.49-19.6,20.16c-3.42,3.46-7.12,6.66-10.59,10.07
		c-7.21,7.08-14.26,14.32-21.6,21.26c-1.39,1.32-3.81,2.18-5.76,2.18c-58.98,0.11-117.96,0.09-176.94,0.09c-30.66,0-61.32,0-91.97,0
		C0,619.34,0,618.67,0,618.01z"/>
	<path d="M0,554c68.3,0,136.6-0.02,204.91,0.06c3.22,0,5.51-0.85,7.81-3.18c19.93-20.12,40-40.1,60.02-60.14
		c1.93-1.93,4.13-3.35,2.49-7.07c-1.32-2.98,3.47-8.32,6.84-8.62c3.92-0.35,7.59,2.96,7.92,7.15c0.38,4.77-2.01,7.95-6.73,7.66
		c-4.47-0.28-7.32,1.53-10.29,4.53c-19.68,19.9-39.56,39.6-59.26,59.48c-2.3,2.33-4.59,3.18-7.81,3.18
		C137.27,556.98,68.64,557,0,557C0,556,0,555,0,554z"/>
	<path d="M1920,526c-68.29,0-136.58,0.02-204.87-0.06c-3.21,0-5.51,0.81-7.82,3.15c-20.04,20.24-40.22,40.34-60.36,60.48
		c-1.87,1.87-3.62,3.29-2.17,6.7c1.29,3.02-3.4,8.34-6.79,8.67c-4.14,0.41-7.83-3.1-7.98-7.59c-0.16-4.79,2.27-7.69,7.16-7.2
		c4.1,0.41,6.52-1.21,9.17-3.89c19.81-20,39.81-39.81,59.59-59.84c2.58-2.61,5.13-3.5,8.69-3.49c68.46,0.09,136.92,0.07,205.37,0.07
		C1920,524,1920,525,1920,526z"/>
	<path d="M1920,612.01c-15.98,0-31.96,0.15-47.94-0.03c-33.03-0.38-66.05-0.98-99.07-1.3c-1.63-0.02-3.69,1.46-4.83,2.84
		c-2.44,2.95-5.84,3.49-8.45,2.07c-2.17-1.18-3.89-4.29-4.54-6.87c-0.99-3.89,2.43-6.16,5.33-7.2c1.84-0.66,5.67,0.25,6.6,1.72
		c3.51,5.55,8.95,4.62,13.78,4.67c25.97,0.23,51.93-0.02,77.9,0.15c20.41,0.13,40.82,0.63,61.23,0.96C1920,610,1920,611,1920,612.01
		z"/>
	<path d="M0,467.99c15.31,0,30.63-0.15,45.94,0.03c33.69,0.39,67.38,0.98,101.07,1.3c1.63,0.02,3.69-1.46,4.83-2.84
		c2.44-2.95,5.84-3.49,8.45-2.07c2.17,1.18,3.89,4.29,4.54,6.87c0.99,3.89-2.43,6.16-5.33,7.2c-1.84,0.66-5.67-0.25-6.6-1.72
		c-3.5-5.55-8.95-4.62-13.78-4.67c-25.97-0.23-51.93,0.02-77.9-0.15c-20.41-0.13-40.82-0.63-61.23-0.96C0,469.99,0,468.99,0,467.99z
		"/>
	<path d="M1920,437.99c-80.13,0-160.27,0-240.4-0.01c-2.93,0-5.48-0.23-7.53,3.1c-1.97,3.2-6.15,2.35-9.3-0.77
		c-3.39-3.35-1.51-6.11,0.98-8.43c2.83-2.64,6.15-2.97,8.32,0.81c1.96,3.42,4.88,3.31,8.04,3.31c79.97-0.02,159.94-0.01,239.9-0.01
		C1920,436.66,1920,437.33,1920,437.99z"/>
	<path d="M0,642.01c80,0,159.99,0,239.99,0c3.05,0,5.84,0.46,8.02-3.15c1.94-3.2,6.14-2.28,9.29,0.89c3.4,3.41,1.35,6.13-1.11,8.43
		c-2.88,2.69-6.32,2.82-8.27-0.96c-1.67-3.23-4.05-3.23-6.93-3.23c-80.33,0.03-160.66,0.02-240.99,0.02C0,643.34,0,642.67,0,642.01z
		"/>
	<path d="M0,410.99c56.67,0,113.33-0.03,170,0.07c3.26,0.01,5.53-0.92,7.79-3.25c8.94-9.2,18.04-18.25,27.2-27.25
		c2.15-2.11,3.44-4.07,2.85-7.34c-0.69-3.85,2.44-7.57,6.02-6.98c3.17,0.52,6.21,2.05,6.19,6.33c-0.02,3.94-2.43,6.9-6.34,6.28
		c-3.3-0.52-5.05,0.93-7.05,2.95c-9.25,9.37-18.67,18.58-27.85,28.01c-2.26,2.33-4.54,3.26-7.79,3.25c-57-0.1-114-0.07-171-0.07
		C0,412.32,0,411.66,0,410.99z"/>
	<path d="M1920,669.01c-56.67,0-113.33,0.03-170-0.07c-3.26-0.01-5.53,0.92-7.79,3.25c-8.94,9.2-18.04,18.25-27.2,27.25
		c-2.15,2.11-3.44,4.07-2.85,7.34c0.69,3.85-2.44,7.57-6.01,6.98c-3.17-0.52-6.21-2.05-6.19-6.33c0.02-3.94,2.43-6.9,6.34-6.28
		c3.3,0.52,5.05-0.93,7.05-2.95c9.25-9.37,18.67-18.58,27.85-28.01c2.26-2.33,4.54-3.26,7.79-3.25c57,0.1,114,0.07,171,0.07
		C1920,667.68,1920,668.34,1920,669.01z"/>
	<path d="M1920,504c-43.1,0-86.2,0.01-129.29-0.03c-2.56,0-4.36,0.18-5.98,2.92c-0.89,1.5-4.71,2.31-6.74,1.75
		c-1.68-0.46-3.77-3.44-3.7-5.22c0.09-2.15,1.84-5.04,3.71-6.03c1.46-0.78,5.08,0.14,6.18,1.54c2.01,2.55,4.05,3.14,7.04,3.14
		c42.93-0.08,85.86-0.05,128.79-0.05C1920,502.66,1920,503.33,1920,504z"/>
	<path d="M0,576c43.1,0,86.2-0.01,129.29,0.03c2.56,0,4.36-0.18,5.98-2.92c0.89-1.5,4.71-2.31,6.74-1.75
		c1.68,0.46,3.77,3.44,3.7,5.22c-0.09,2.15-1.84,5.04-3.71,6.03c-1.46,0.78-5.08-0.14-6.18-1.54c-2.01-2.55-4.05-3.14-7.04-3.14
		C85.86,578.03,42.93,578,0,578C0,577.34,0,576.67,0,576z"/>
	<path d="M1418.94,713.34c1.7,1.07,4.18,1.76,4.93,3.3c1.7,3.45,4.31,3.41,7.4,3.4c70.49-0.04,140.98-0.06,211.47,0.02
		c5.27,0.01,9.31-1.31,13.24-5.32c22.87-23.32,46.12-46.26,69.13-69.44c3.62-3.65,7.27-5.48,12.74-5.45
		c50.66,0.26,101.32,0.15,151.98,0.16c2.61,0,4.76,0.17,6.38-2.99c1.87-3.65,7.91-4.12,10.73-1.59c4.13,3.69,4.09,7.57-0.12,11.25
		c-3.89,3.39-7.33,2.79-10.86-1.45c-0.96-1.15-2.87-2.13-4.34-2.13c-52.33-0.11-104.65-0.11-156.98-0.01
		c-1.51,0-3.39,0.84-4.47,1.92c-11.87,11.84-23.54,23.88-35.43,35.71c-12.37,12.31-25.38,24.02-37.13,36.88
		c-4.11,4.5-7.85,5.47-13.14,5.46c-71.32-0.08-142.65-0.05-213.97-0.06c-2.74,0-5.01-0.29-6.84,3.1c-1.4,2.58-4.88,3.69-8.58,1.62
		c-3.76-2.11-4.63-5.12-3.92-8.66C1411.89,715.36,1414.68,713.71,1418.94,713.34z"/>
	<path d="M502.11,367.53c-2.93-2.05-4.76-3.46-6.72-4.67c-1.75-1.08-3.65-2.75-5.48-2.76c-71.32-0.14-142.63-0.11-213.95-0.14
		c-4.35,0-7.76,1.07-11.08,4.45c-23.26,23.64-46.82,46.96-70.21,70.48c-3.49,3.51-7.07,5.26-12.31,5.24
		C131.7,439.9,81.05,440,30.39,439.98c-2.78,0-5.03-0.21-6.74,3.23c-1.81,3.66-7.98,3.83-10.78,1.16
		c-3.92-3.73-3.87-7.28,0.14-10.89c3.91-3.52,7.41-2.94,10.96,1.05c1.24,1.4,3.75,2.35,5.68,2.36c48.99,0.13,97.97,0.1,146.96,0.1
		c1.17,0,2.35-0.11,3.5,0.02c5.34,0.6,9.04-0.91,13.1-5.29c11.84-12.79,24.8-24.54,37.15-36.87c11.52-11.51,22.71-23.35,34.29-34.79
		c1.73-1.71,4.79-2.94,7.24-2.95c72.31-0.15,144.63-0.12,216.94-0.13c3.01,0,5.72,0.55,7.73-3.35c1.29-2.5,5.02-3.39,8.65-1.19
		c3.73,2.26,4.69,5.5,3.42,8.74C507.7,363.55,504.71,365.11,502.11,367.53z"/>
	<path d="M1610.87,619.38c-2.74,3.15-4.26,6.4-6.57,7.12c-2.27,0.7-6.49-0.32-7.8-2.1c-2.16-2.93-4.36-3.43-7.49-3.42
		c-60.49,0.04-120.98,0-181.46,0.11c-3.6,0.01-6.11-0.98-8.67-3.56c-31.24-31.44-62.62-62.76-93.95-94.11
		c-2.07-2.07-3.65-4.19-7.51-2.63c-3.4,1.37-8.03-2.72-8.41-6.41c-0.39-3.77,3.44-8.13,7.35-8.38c4.48-0.29,7.85,2.42,7.5,6.94
		c-0.34,4.33,1.47,7.03,4.35,9.87c15.36,15.15,30.56,30.46,45.81,45.72c15.43,15.43,30.92,30.82,46.24,46.35
		c2.3,2.33,4.6,3.18,7.82,3.18c60.49-0.09,120.98-0.08,181.46-0.02c2.9,0,4.98-0.53,7.14-2.91c1.54-1.69,5.12-3.02,7.14-2.4
		C1606.25,613.48,1607.97,616.48,1610.87,619.38z"/>
	<path d="M309.12,460.58c2.76-3.14,4.33-6.51,6.59-7.07c2.41-0.6,6.46,0.66,8.02,2.57c2.21,2.69,4.43,2.93,7.28,2.93
		c60.49-0.02,120.98,0.02,181.46-0.09c3.62-0.01,6.1,1.02,8.66,3.59c31.25,31.44,62.62,62.75,93.95,94.11
		c2.09,2.1,3.7,4.11,7.52,2.6c3.42-1.35,8.03,2.75,8.38,6.45c0.36,3.81-3.44,8.11-7.39,8.34c-4.52,0.27-7.84-2.41-7.47-6.98
		c0.35-4.36-1.52-7.03-4.38-9.86c-15.59-15.4-31.03-30.94-46.52-46.43c-15.2-15.2-30.45-30.34-45.54-45.65
		c-2.31-2.34-4.62-3.16-7.83-3.15c-60.49,0.08-120.98,0.07-181.46,0.02c-2.91,0-4.98,0.55-7.13,2.93c-1.53,1.69-5.12,2.98-7.14,2.35
		C313.73,466.49,312.02,463.5,309.12,460.58z"/>
	<path d="M1582.71,497.21c-2.61,2.76-4.15,5.32-6.41,6.54c-2.86,1.53-6.23,0.85-8.06-2.15c-1.91-3.13-4.02-3.33-7.64-3.27
		c-18.92,0.29-37.85-0.22-56.77-0.3c-22.15-0.09-44.32-0.52-66.44,0.24c-8.07,0.27-13.25-2.07-18.69-7.77
		c-13.65-14.3-28.17-27.76-42.16-41.74c-12.22-12.21-24.21-24.66-36.28-37.03c-1.76-1.8-3.09-3.3-6.28-1.96
		c-3.44,1.44-8.68-3.15-8.91-7.04c-0.22-3.62,3.57-7.54,7.46-7.73c4.68-0.23,8.52,3.09,7.26,7.52c-1.17,4.09,0.95,5.69,3.1,7.84
		c26.73,26.74,53.5,53.43,80.14,80.26c3.27,3.29,6.21,4.99,11.33,4.62c10.94-0.78,21.97-0.24,32.96-0.24c29.31,0,58.62,0,87.94,0
		c1.66,0,3.33,0.02,4.99,0.1c3.19,0.16,6.13,0.37,8.33-3c1.82-2.79,5.21-3.8,8.08-1.94
		C1578.83,491.57,1580.22,494.22,1582.71,497.21z"/>
	<path d="M587.08,685.01c-4.74,0.04-7.52-3.51-7.15-8.52c0.13-1.75-0.27-4.16-1.4-5.3c-27.82-28.03-55.79-55.93-83.68-83.89
		c-2.24-2.24-4.41-3.6-7.7-2.37c-1.17,0.44-2.64,0.08-3.97,0.08c-39.5,0-78.99,0-118.49,0c-1.5,0-3.02,0.13-4.49-0.07
		c-3.46-0.45-6.34-0.29-8.8,3c-2.64,3.53-7.41,3.53-10.23,0.71c-2.92-2.93-2.95-8.71-0.05-11.17c3.27-2.79,8.26-2.6,10.7,1.03
		c2.07,3.08,4.16,3.14,7.69,3.13c40.77-0.12,81.55,0.56,122.31,0.07c8.66-0.1,14.14,2.33,19.98,8.32
		c25.48,26.13,51.47,51.76,77.27,77.57c2.07,2.07,3.64,4.22,7.51,2.63c3.34-1.37,8.31,3.62,8.42,7.59
		C595.08,681.42,591.17,684.98,587.08,685.01z"/>
	<path d="M309.02,632.54c-0.5,0.73-1.14,1.87-1.95,2.86c-3.05,3.7-7.63,4.12-11.07,1.07c-2.89-2.56-2.91-8.31-0.03-10.9
		c3.26-2.93,8.71-2.72,11.01,1.18c1.64,2.78,3.72,3.02,6.21,3.2c1.49,0.11,3,0.05,4.5,0.05c49.64,0,99.28,0.03,148.92-0.07
		c3.4-0.01,5.83,0.83,8.27,3.32c12.59,12.85,25.32,25.57,38.17,38.15c1.36,1.33,4.12,2.41,5.81,1.97c4.32-1.13,7.19,1.06,8.57,4.05
		c0.99,2.14,0.49,5.96-0.89,7.95c-1.84,2.66-5.17,3.46-8.8,2.02c-3.88-1.54-3.72-4.88-4.51-7.92c-0.48-1.82-0.55-4.13-1.71-5.32
		c-12.6-12.84-25.44-25.44-38.04-38.29c-2.21-2.26-4.42-2.92-7.42-2.92c-49.64,0.07-99.28,0.06-148.92,0.03
		C314.55,632.99,311.97,632.71,309.02,632.54z"/>
	<path d="M1610.97,447.51c0.56-0.82,1.19-1.97,2.02-2.96c3.09-3.71,7.65-4.08,11.07-0.97c2.84,2.58,2.79,8.39-0.08,10.9
		c-3.3,2.88-8.59,2.56-11.05-1.27c-1.52-2.36-3.04-3.37-5.7-3.17c-1.65,0.12-3.33-0.04-4.99-0.04c-49.81,0-99.61,0.04-149.42-0.13
		c-2.44-0.01-5.47-1.28-7.22-2.99c-12.78-12.42-25.32-25.09-37.9-37.72c-2.16-2.17-3.87-4.05-7.62-2.4
		c-3.19,1.4-7.75-2.61-8.38-6.51c-0.56-3.44,2.33-7.54,5.8-8.23c4.11-0.82,8.44,1.38,8.32,5.35c-0.2,6.82,4.3,10.25,8.31,14.26
		c10.72,10.72,21.5,21.37,32.1,32.21c2.27,2.32,4.55,3.24,7.79,3.23c49.47-0.1,98.95-0.08,148.42-0.05
		C1605.19,447.02,1607.94,447.32,1610.97,447.51z"/>
	<path d="M453.39,488c-21.22,0-42.37,0-63.53,0c-23.49,0-46.99,0.09-70.48-0.1c-3.69-0.03-6.09,1.19-8.61,3.71
		c-27.6,27.77-55.34,55.41-82.96,83.17c-2.27,2.28-4.49,3.35-7.77,3.3c-12.66-0.19-25.33-0.18-37.99,0.04
		c-1.73,0.03-4.17,1.17-5.02,2.57c-1.99,3.26-5.14,3.01-7.23,1.91c-1.84-0.97-3.49-4.01-3.53-6.17c-0.03-1.77,2.13-4.58,3.87-5.12
		c2.24-0.69,5.58-1.64,7.2,2.23c0.49,1.18,2.65,2.34,4.06,2.36c13.16,0.18,26.33,0.23,39.48-0.04c1.94-0.04,4.22-1.59,5.71-3.08
		c27.53-27.38,54.99-54.81,82.35-82.36c3.16-3.18,6.4-4.53,10.92-4.52c40.65,0.15,81.31,0.09,121.96,0.1c1.98,0,4.04,0.56,5.93,0.19
		c2.43-0.48,5.13-1.13,6.96-2.63c2.52-2.07,4.45-3.43,7.87-1.76c2.98,1.46,4.26,3.73,3.22,6.31c-0.91,2.26-3.26,5.41-5.05,5.46
		c-2.22,0.06-4.54-2.63-6.77-4.2C453.69,489.16,453.63,488.57,453.39,488z"/>
	<path d="M1466.44,592c41.53,0,82.67-0.42,123.79,0.28c11.05,0.19,18.63-2.93,26.28-10.9c24.91-25.95,50.65-51.1,76.22-76.42
		c1.64-1.62,4.48-2.79,6.79-2.84c12.65-0.27,25.32-0.02,37.97-0.25c1.9-0.03,4.54-1.14,5.49-2.62c2.06-3.22,5.18-2.95,7.25-1.85
		c1.84,0.98,3.52,4.07,3.48,6.19c-0.03,1.81-2.3,4.48-4.15,5.12c-2.31,0.79-5.59,1.3-7.07-2.5c-0.41-1.06-2.4-2.12-3.67-2.14
		c-13.32-0.15-26.65-0.21-39.97,0.04c-1.79,0.03-3.88,1.53-5.28,2.92c-27.63,27.49-55.2,55.04-82.69,82.67
		c-3.02,3.03-6.14,4.38-10.47,4.36c-40.97-0.13-81.95-0.07-122.92-0.1c-1.81,0-3.7-0.66-5.39-0.28c-2.43,0.55-5.11,1.3-6.94,2.84
		c-2.38,2.01-4.29,3.18-7.46,1.8c-3.17-1.38-4.64-3.8-3.49-6.63c0.9-2.23,3.26-5.12,5.22-5.33c2.03-0.21,4.4,2.41,6.54,3.91
		C1466.32,590.56,1466.28,591.39,1466.44,592z"/>
	<path d="M515.77,705.01c35.83,0,71.66,0,107.49-0.01c2.41,0,4.63,0.38,6.22-2.64c1.76-3.35,5.44-3.22,8.9-0.63
		c3.4,2.55,2.69,5.72,0.82,8.37c-2.18,3.1-6.34,3.62-8.36,0.89c-3.43-4.64-7.75-3.98-12.22-3.98c-68.66,0-137.32-0.25-205.98,0.28
		c-9.76,0.08-14.75-5.3-20.52-10.87c-3.94-3.81-7.76-7.73-11.65-11.59c-4.74-4.7-9.4-9.5-14.31-14.01c-1.19-1.09-3.24-1.73-4.9-1.73
		c-4.93,0.02-7.48-2.09-7.27-6.56c0.19-3.98,3.46-6.98,7.04-6.46c3.6,0.53,5.87,4.38,5.27,8.4c-0.19,1.29,0.04,3.17,0.86,4
		c11.37,11.6,22.81,23.13,34.45,34.46c1.4,1.36,4.07,1.99,6.16,2C443.78,705.04,479.78,705.01,515.77,705.01z"/>
	<path d="M1404.47,374.99c-35.99,0-71.97,0.01-107.96-0.02c-2.53,0-4.56-0.02-6.11,2.86c-1.75,3.24-5.54,3.02-8.95,0.3
		c-3.32-2.65-2.48-5.79-0.51-8.38c2.29-3,6.4-3.47,8.36-0.6c3.11,4.55,7.12,3.84,11.27,3.84c68.97,0.01,137.95,0.25,206.92-0.27
		c9.79-0.07,14.72,5.37,20.43,10.99c6.87,6.76,13.66,13.61,20.49,20.4c1.3,1.29,2.65,2.52,3.97,3.78c2.07,1.99,3.62,4.16,7.44,3.29
		c3.83-0.87,6.38,2.33,6.17,6.34c-0.21,3.99-3.52,6.97-7.09,6.4c-3.39-0.54-6.44-4.7-5.27-7.96c1.69-4.71-2.56-6.06-4.56-8.17
		c-9.69-10.2-19.71-20.11-29.84-29.88c-1.66-1.6-4.5-2.8-6.8-2.81C1476.44,374.94,1440.45,374.99,1404.47,374.99z"/>
	<path d="M1580.63,642.87c-2.85,2.79-4.68,6.03-7.08,6.54c-2.45,0.51-5.5-1.58-8.21-2.71c-1.76-0.73-3.39-2.57-5.08-2.57
		c-46.81-0.14-93.62-0.14-140.42,0c-1.71,0.01-3.85,1.26-5.03,2.61c-3.28,3.72-7.79,4.43-11.27,1.29
		c-3.22-2.92-3.42-7.36-0.46-10.55c3.2-3.45,8.06-3.59,11.06,0.36c2.1,2.77,4.33,3.25,7.47,3.24c45.81-0.09,91.62-0.07,137.43-0.03
		c2.89,0,5.34,0.02,6.9-3.28c1.64-3.47,5.56-3.71,8.23-2.38C1576.57,636.58,1578.03,639.72,1580.63,642.87z"/>
	<path d="M430.03,438.99c-22.99,0-45.98,0.02-68.96-0.03c-2.9-0.01-5.15,0.11-6.96,3.19c-2.19,3.73-7.31,4-10.23,1.23
		c-3.7-3.51-3.89-8.03-0.47-11.27c3.28-3.11,8.35-3.08,10.75,0.81c1.75,2.85,3.73,3.11,6.5,3.11c46.31-0.05,92.62-0.04,138.92-0.01
		c2.56,0,4.45-0.18,6.08-2.92c2.34-3.92,7.41-4.13,10.75-1.17c3.26,2.88,3.5,7.33,0.58,10.55c-3.05,3.37-7.98,3.76-10.68,0.1
		c-2.43-3.29-5.21-3.67-8.82-3.65C475,439.05,452.52,438.99,430.03,438.99z"/>
	<path d="M579.19,390.72c1.34,5.16-1.86,9.18-5.99,9.27c-3.72,0.08-8.38-4.75-8.08-8.38c0.33-4.04,4.55-7.69,8.85-6.4
		c3.65,1.09,5.08-0.74,7.01-2.67c10.36-10.37,20.79-20.68,31.03-31.16c2.38-2.44,4.74-3.48,8.21-3.47
		c29.15,0.15,58.3,0.04,87.45,0.15c3.45,0.01,6.14-0.3,8.38-3.44c2.55-3.58,6.5-3.31,9.63-1.03c3.02,2.19,4.14,5.6,2.27,9.36
		c-1.84,3.69-5.11,4.46-8.76,3.93c-1.13-0.16-2.8-1.07-3.07-1.98c-1.28-4.41-4.62-3.92-7.96-3.91c-28.98,0.03-57.97,0.08-86.95-0.07
		c-3.47-0.02-5.83,1.03-8.21,3.47c-10.01,10.25-20.25,20.26-30.27,30.5C581.17,386.46,580.35,388.75,579.19,390.72z"/>
	<path d="M1340.09,690.6c-0.57-6.62,2.5-10.57,6.87-10.59c3.75-0.02,8.27,4.88,7.86,8.51c-0.49,4.3-4.82,7.69-9.42,6.26
		c-3.09-0.96-4.17,0.53-5.74,2.09c-10.84,10.83-21.6,21.74-32.59,32.41c-1.55,1.51-4.23,2.6-6.39,2.62
		c-29.64,0.17-59.28,0.13-88.92,0.09c-3.01,0-5.49-0.01-7.55,3.09c-1.84,2.77-5.14,4.39-8.57,1.95c-3.3-2.35-5.77-5.11-3.63-9.7
		c1.77-3.82,4.89-4.64,8.55-4.22c1.18,0.13,3.05,0.9,3.27,1.72c1.33,5.02,5.16,4.19,8.75,4.19c28.98-0.01,57.95,0.06,86.92-0.13
		c2.3-0.02,5.12-1.23,6.79-2.84c10.54-10.18,20.87-20.58,31.14-31.03C1338.86,693.53,1339.64,691.37,1340.09,690.6z"/>
	<path d="M1267.54,402.05c-10.18,0-20.36-0.05-30.53,0.08c-1.12,0.01-2.43,0.89-3.29,1.73c-9,8.9-17.98,17.83-26.82,26.88
		c-0.93,0.95-1.69,2.98-1.32,4.11c1.39,4.28-1.09,6.82-3.93,8.7c-2.66,1.76-5.95,1.71-8.4-0.91c-2.45-2.62-3.05-5.62-1.43-9.06
		c1.75-3.7,4.37-4.65,8.27-3.77c1.22,0.28,3.13-0.46,4.11-1.39c7.49-7.04,15.14-13.95,22.12-21.47c4.86-5.23,9.49-8.58,17.36-8.2
		c16.12,0.77,32.3,0.11,48.45,0.36c2.46,0.04,5.44,1.26,7.24,2.94c7.07,6.58,13.68,13.64,20.67,20.3c1.19,1.14,3.48,1.61,5.24,1.56
		c3.58-0.1,7.13,0.58,7.98,4.1c0.63,2.61-0.12,6.26-1.64,8.51c-1.96,2.9-6.14,3.25-8.69,1.16c-2.04-1.68-2.69-5.12-3.81-7.84
		c-0.58-1.42-0.37-3.43-1.31-4.41c-6.92-7.2-13.96-14.29-21.18-21.19c-1.35-1.29-3.69-2.11-5.6-2.16c-7.82-0.24-15.65-0.1-23.48-0.1
		C1267.54,402.01,1267.54,402.03,1267.54,402.05z"/>
	<path d="M654.84,681.01c-8.99,0-18,0.21-26.98-0.14c-2.48-0.1-5.43-1.27-7.24-2.96c-7.07-6.58-13.67-13.65-20.67-20.3
		c-1.19-1.13-3.49-1.59-5.25-1.54c-3.59,0.1-7.13-0.63-7.97-4.12c-0.63-2.61,0.14-6.26,1.67-8.51c1.97-2.91,6.15-3.21,8.69-1.13
		c2.04,1.68,2.67,5.13,3.78,7.85c0.58,1.43,0.39,3.43,1.33,4.41c6.92,7.2,13.98,14.28,21.18,21.2c1.26,1.21,3.38,2.12,5.12,2.14
		c15.99,0.16,31.98,0.08,47.97,0.1c5.6,0.01,10.19-1.27,14.27-5.96c6.86-7.91,14.74-14.92,22.04-22.46
		c1.04-1.07,1.99-3.23,1.62-4.47c-1.29-4.29,1.12-6.83,3.99-8.69c2.66-1.73,5.96-1.69,8.4,0.94c2.44,2.63,3.03,5.63,1.41,9.07
		c-1.76,3.72-4.42,4.59-8.29,3.74c-1.23-0.27-3.11,0.49-4.1,1.41c-7.49,7.04-15.13,13.96-22.13,21.47
		c-4.73,5.07-9.09,9.04-16.87,8.14C669.57,680.35,662.17,681.01,654.84,681.01z"/>
	<path d="M1422,593.16c-0.07,3.78-3,6.26-6.9,5.84c-3.33-0.36-5.73-3.87-5.54-7.18c0.1-1.79-0.36-4.18-1.52-5.37
		c-11.09-11.29-22.45-22.31-33.59-33.55c-12.28-12.38-24.33-25-36.65-37.35c-11.02-11.06-22.19-21.98-33.51-32.73
		c-1.63-1.55-4.48-2.54-6.76-2.54c-18.25,0.06-36.5,0.81-54.73,0.45c-4.76-0.09-8.14-0.47-11.31,3.85
		c-2.12,2.89-7.14,1.64-9.42-1.47c-1.98-2.7-0.85-6.82,2.45-8.92c3.57-2.27,6.06-1.23,8.68,2.71c0.82,1.23,3.2,1.99,4.87,2
		c20.48,0.13,40.97,0,61.45,0.21c2.3,0.02,5.14,1.24,6.78,2.86c34.03,33.8,67.92,67.75,101.86,101.65c1.88,1.88,3.2,4.03,7.03,2.66
		C1418.95,584.94,1422.09,588.7,1422,593.16z"/>
	<path d="M498,486.96c0.03-3.87,2.81-6.32,6.78-5.96c3.3,0.3,5.85,3.88,5.74,7.09c-0.07,1.95,0.33,4.55,1.58,5.81
		c14.25,14.38,28.8,28.48,43.09,42.83c14.49,14.54,28.75,29.29,43.17,43.89c5.49,5.55,10.98,11.13,16.81,16.3
		c1.82,1.62,4.77,2.78,7.2,2.78c18.25-0.04,36.5-0.73,54.74-0.48c4.62,0.06,8.17,0.8,11.34-3.74c2.13-3.05,7.42-1.63,9.6,1.78
		c1.85,2.91,0.65,6.8-2.91,8.68c-3.61,1.91-6.34,1.33-8.33-2.74c-0.59-1.21-3.11-2.09-4.75-2.1c-20.32-0.14-40.64-0.16-60.95-0.03
		c-3.22,0.02-5.5-0.86-7.81-3.18c-33.84-33.99-67.78-67.89-101.7-101.8c-1.81-1.81-3.08-3.67-6.64-2.39
		C501.17,495.06,497.97,491.39,498,486.96z"/>
	<path d="M751.31,384.99c2.03-5.01,4.87-6.64,8.95-5.33c3.33,1.06,6.35,5.67,5.63,8.58c-0.95,3.81-5.04,6.44-9.09,5.71
		c-0.9-0.16-2.2-0.58-2.5-1.25c-2.64-5.79-7.83-4.67-12.48-4.67c-34.14-0.06-68.28-0.07-102.42,0.08c-1.56,0.01-3.61,1.24-4.56,2.54
		c-2.58,3.56-6.19,4.56-9.53,2.78c-2.07-1.1-3.75-4.38-4.12-6.91c-0.58-3.92,2.18-6.82,5.98-6.91c2.32-0.06,4.71,2.02,7.05,3.16
		c1.45,0.71,2.87,2.12,4.31,2.13C676,385.01,713.47,384.99,751.31,384.99z"/>
	<path d="M1162.06,685.09c1.93,1.5,3.83,3.03,5.79,4.48c1.19,0.88,2.48,2.33,3.73,2.33c36.21,0.13,72.43,0.14,108.64-0.01
		c1.7-0.01,3.93-1.27,4.99-2.65c2.52-3.31,6-4.44,9.11-2.78c2.2,1.17,4.06,4.52,4.47,7.14c0.61,3.91-2.31,6.77-6.06,6.85
		c-2.32,0.05-4.69-2.12-7.04-3.29c-1.45-0.72-2.89-2.05-4.34-2.06c-36.47-0.12-72.94-0.09-109.41-0.09c-1.94,0-3.31-0.15-4.41,2.5
		c-1.34,3.22-5.13,4.8-8.2,2.41c-2.35-1.83-4.91-5.12-4.92-7.78C1154.37,688.95,1156.9,685.69,1162.06,685.09z"/>
	<path d="M1397,433.81c0.34-2.61,2.12-4.92,6.23-4.82c3.83,0.09,6.15,2.99,6.37,6.93c0.12,2.15,0.84,4.77,2.26,6.25
		c8.65,9.01,17.65,17.69,26.35,26.65c2.26,2.33,4.54,3.25,7.79,3.24c43.98-0.1,87.96-0.08,131.94-0.05c2.94,0,5.38-0.05,7.73-2.78
		c1.33-1.54,5.2-2.01,7.4-1.31c1.72,0.55,3.81,3.81,3.57,5.58c-0.29,2.11-2.56,4.91-4.56,5.55c-1.82,0.58-5.19-0.7-6.52-2.29
		c-1.97-2.36-3.92-2.82-6.68-2.82c-44.48,0.06-88.96,0-133.44,0.13c-3.65,0.01-6.13-1.06-8.64-3.65
		c-8.8-9.1-17.78-18.04-26.86-26.85c-1.33-1.29-3.65-2.35-5.44-2.24C1400.05,441.62,1396.99,439.37,1397,433.81z"/>
	<path d="M407.61,608c-22.32,0-44.65-0.06-66.97,0.11c-1.9,0.01-3.75,1.71-5.7,2.38c-2.5,0.86-5.39,2.51-7.55,1.89
		c-1.86-0.54-4.11-3.83-4.03-5.82c0.08-2,2.48-4.89,4.48-5.56c1.8-0.61,5.22,0.6,6.52,2.18c2.1,2.54,4.28,2.87,7.16,2.87
		c44.48-0.05,88.96-0.01,133.44-0.1c3.24-0.01,5.53,0.88,7.8,3.22c8.58,8.85,17.36,17.51,26.11,26.2c2.14,2.12,3.73,4.8,7.92,2.98
		c2.7-1.18,6.24,3.05,6.2,6.58c-0.04,4-2.12,6.08-6.13,6.09c-3.82,0.01-7.11-3.08-6.21-6.8c0.75-3.12-0.53-4.61-2.34-6.4
		c-9.09-9.05-18.06-18.22-27.3-27.11c-1.56-1.5-4.25-2.54-6.42-2.56C452.25,607.93,429.93,608,407.61,608z"/>
	<path d="M1474.54,521c-17.66,0-35.32,0.1-52.97-0.13c-2.31-0.03-5.15-1.2-6.8-2.81c-14.29-13.97-28.37-28.17-42.5-42.31
		c-1.61-1.61-2.82-3.15-5.8-1.95c-2.72,1.09-5.95,0.15-6.51-3.41c-0.37-2.33-0.48-5.82,0.86-7.02c1.6-1.43,5.25-1.89,7.36-1.07
		c2.54,0.98,4.73,3.44,3.18,7.2c-0.47,1.14,0.17,3.4,1.11,4.35c8.71,8.81,17.6,17.45,26.43,26.14c5.67,5.59,11.28,11.24,17.04,16.73
		c1.14,1.08,2.88,2.18,4.34,2.19c36.15,0.12,72.29,0.12,108.44,0c1.46,0,2.89-1.44,4.36-2.15c2.3-1.11,5.17-3.56,6.79-2.92
		c2.2,0.88,4.46,4.01,4.76,6.42c0.21,1.66-2.51,4.5-4.54,5.43c-2.53,1.15-5.33,0.48-7.23-2.55c-0.78-1.24-3.18-2.04-4.85-2.05
		C1510.18,520.94,1492.36,521,1474.54,521z"/>
	<path d="M445.51,561c-17.66,0-35.31,0.01-52.97-0.01c-2.5,0-4.5-0.07-6.12,2.82c-2.12,3.78-6.21,3.92-9.08,0.98
		c-2.6-2.67-3.47-5.7-0.59-8.67c3.19-3.28,7.27-2.71,10.27,0.48c1.29,1.37,3.77,2.29,5.71,2.3c34.98,0.13,69.96,0.15,104.94,0.02
		c3.42-0.01,5.83,0.9,8.25,3.37c13.78,14.02,27.77,27.82,41.6,41.79c1.85,1.87,3.3,3.01,6.22,2.05c2.98-0.97,5.91,0.29,6.43,3.65
		c0.35,2.28,0.17,5.56-1.21,6.93c-1.39,1.37-4.86,1.76-6.9,1.07c-2.78-0.94-4.53-3.34-3.57-7.04c0.39-1.5-0.38-3.95-1.51-5.09
		c-11.39-11.4-23.91-21.82-34.17-34.14c-7.49-8.99-15.55-11.25-26.33-10.69C472.86,561.53,459.17,561,445.51,561z"/>
	<path d="M1206.85,346.98c3.92,2.57,5.77-1.17,8.09-3.46c7-6.91,13.74-14.09,20.98-20.72c2.19-2.01,5.68-3.63,8.58-3.65
		c34.32-0.25,68.65-0.16,102.98-0.15c1.33,0,2.71-0.11,3.98,0.18c3.55,0.81,6.49,0.79,8.84-2.84c2.49-3.84,5.95-2.79,9-0.48
		c2.49,1.88,2.44,7.06-0.09,9.33c-2.94,2.63-6.77,2.77-8.61-0.43c-2.53-4.4-6.07-3.75-9.76-3.75c-35.33-0.01-70.65-0.07-105.98,0.12
		c-2.45,0.01-5.44,1.28-7.23,2.97c-7.65,7.18-14.96,14.73-22.37,22.17c-1.78,1.79-3.88,3.13-2.43,6.59c1.09,2.61-3.08,6.9-6.06,7.1
		c-2.88,0.19-6.68-3.64-6.74-6.79C1199.96,350.07,1203.1,347.05,1206.85,346.98z"/>
	<path d="M624.03,761.02c-16.82,0-33.63,0.03-50.45-0.04c-2.09-0.01-4.18-0.53-6.27-0.86c-3.24-0.5-5.63,0.48-7.42,3.41
		c-1.57,2.56-4.29,3.61-6.82,1.87c-1.76-1.2-3.93-3.64-3.78-5.35c0.19-2.29,2.11-5.84,3.89-6.25c2.2-0.51,5.05,1.57,7.56,2.67
		c1.62,0.71,3.11,2.43,4.67,2.44c37.13,0.14,74.25,0.13,111.38,0.02c1.58,0,3.52-0.89,4.67-2c8.23-8.01,16.36-16.13,24.35-24.38
		c0.94-0.97,1.34-2.98,1.17-4.41c-0.44-3.58,1.14-6.09,4.17-6.96c1.92-0.55,4.99-0.08,6.33,1.2c1.45,1.39,2.49,4.58,1.9,6.41
		c-0.96,2.99-3.67,4.7-7.38,4.29c-1.56-0.17-3.72,0.35-4.8,1.39c-7.68,7.39-15.23,14.91-22.63,22.57c-2.72,2.81-5.61,4.1-9.58,4.06
		C657.99,760.92,641.01,761.02,624.03,761.02z"/>
	<path d="M1702.93,396.31c-4.22,0.25-7.82,0.64-11.43,0.65c-21,0.06-41.99,0.12-62.99-0.1c-2.3-0.02-5.13-1.24-6.78-2.86
		c-13.94-13.63-27.67-27.47-41.46-41.26c-1.6-1.6-2.81-3.09-5.8-1.96c-3,1.14-7.08-2.36-7.35-5.41c-0.28-3.25,3-6.96,6.25-7.06
		c3.44-0.11,7.24,2.95,6.44,6.24c-1.07,4.41,1.58,6.3,3.95,8.67c12.95,12.97,25.86,25.99,38.98,38.79c1.65,1.61,4.49,2.82,6.79,2.85
		c22.99,0.21,45.99,0.19,68.99,0.02c1.91-0.01,3.79-1.59,5.71-2.39c2.53-1.06,5.33-3.24,7.56-2.78c1.97,0.41,4.64,3.81,4.6,5.84
		c-0.04,2.07-2.76,5.42-4.75,5.78c-2.25,0.41-5.04-1.78-7.5-3.03C1703.52,398,1703.3,396.97,1702.93,396.31z"/>
	<path d="M217.01,683.68c4.25-0.24,8.01-0.63,11.78-0.64c20.83-0.06,41.66-0.13,62.49,0.11c2.44,0.03,5.44,1.33,7.2,3.05
		c13.95,13.62,27.62,27.52,41.53,41.18c1.17,1.15,3.48,1.63,5.24,1.57c3.62-0.13,7.06,2.11,7.52,5.49c0.46,3.36-2.47,6.86-5.96,7.13
		c-3.63,0.28-7.26-2.75-6.66-6.43c0.61-3.71-1.11-5.65-3.37-7.89c-13.25-13.14-26.36-26.43-39.7-39.48
		c-1.55-1.51-4.23-2.62-6.39-2.64c-23.16-0.19-46.33-0.17-69.49-0.02c-1.78,0.01-3.55,1.43-5.32,2.22
		c-2.52,1.12-5.24,3.44-7.48,3.04c-1.99-0.36-4.89-3.83-4.75-5.73c0.16-2.26,2.87-5.61,5-6.08c2.1-0.45,4.88,2.06,7.3,3.39
		C216.44,682.23,216.64,683.04,217.01,683.68z"/>
	<path d="M1449.48,395c11.53,0,23.06-0.07,34.59,0.1c1.23,0.02,2.64,1.17,3.63,2.14c5.25,5.12,10.28,10.47,15.66,15.44
		c1.31,1.21,3.73,1.13,5.49,1.96c2.53,1.19,6.12,2.13,7.05,4.17c1.02,2.26,0.46,6.33-1.06,8.39c-2.04,2.77-6.12,3.68-9.01,0.95
		c-1.88-1.78-4.01-5.28-3.44-7.25c1.02-3.48-0.07-5.2-2.24-7.28c-5.27-5.09-9.59-12.3-15.85-14.91c-6.26-2.61-14.42-0.67-21.75-0.72
		c-2.67-0.02-5.34,0.14-8-0.04c-3.3-0.22-5.83,0.23-7.81,3.56c-1.93,3.24-6.85,3.49-9.53,1.21c-3.67-3.12-4.28-7.5-1.51-10.92
		c2.77-3.42,6.17-3.6,9.84-0.82c1.68,1.27,3.69,2.09,5.56,3.11C1450.57,394.39,1450.02,394.7,1449.48,395z"/>
	<path d="M453.25,682.01c3.83,0,7.67-0.09,11.5,0.03c3.53,0.1,6.55,0.13,8.74-3.75c1.84-3.25,6.83-3.24,9.51-0.79
		c3.63,3.3,4.05,7.56,1.07,10.93c-2.81,3.18-6.5,3.79-9.35,0.6c-3.45-3.85-7.18-4.51-12.11-4.16c-7.96,0.57-16,0.36-23.98,0.02
		c-2.34-0.1-5.09-1.21-6.83-2.77c-5.32-4.79-10.13-10.13-15.38-15c-1.22-1.13-3.45-1.08-5.1-1.83c-2.54-1.15-6.18-1.94-7.14-3.94
		c-1.08-2.24-0.64-6.35,0.85-8.41c1.96-2.71,6.06-3.98,8.97-1.19c1.95,1.87,4,5.43,3.48,7.65c-0.76,3.3,0.17,4.97,2.23,6.84
		c1.11,1.01,2.25,2.02,3.17,3.19C430.67,679.27,439.78,685.87,453.25,682.01z"/>
	<path d="M256.8,707.01c-6.5,0-13-0.03-19.5,0.01c-3.66,0.03-7.35-0.86-9.93,3.58c-0.7,1.2-5.99,1.05-8.15-0.22
		c-3.24-1.9-2.84-6.24-0.1-9.01c2.11-2.13,7.47-2.3,8.82,0.31c1.78,3.44,4.34,3.37,7.4,3.36c13.83-0.07,27.68,0.34,41.49-0.21
		c5.71-0.23,9.5,1.96,13.13,5.62c6.27,6.33,12.58,12.63,18.9,18.92c1.45,1.44,2.5,2.84,5.34,1.87c3.4-1.17,8.45,3.17,7.4,6.46
		c-0.81,2.52-3.86,5.42-6.42,6.03c-3.86,0.93-7.28-2.99-5.97-6.78c1.26-3.65-1.3-5.13-2.75-6.69c-6.87-7.39-14.08-14.47-21.35-21.48
		c-1.12-1.08-3.17-1.65-4.81-1.69C272.47,706.92,264.63,707.01,256.8,707.01z"/>
	<path d="M1663.3,372.99c7.66,0,15.33,0.16,22.98-0.12c1.72-0.06,3.73-1.37,5-2.68c2.35-2.41,6.92-3.19,9.31-1.08
		c3.03,2.67,3.13,6.7,0.23,9.56c-2.41,2.38-7.13,1.62-9.65-1.03c-1.24-1.31-3.35-2.51-5.09-2.53c-14.32-0.2-28.66-0.47-42.97,0.06
		c-5.69,0.21-9.49-1.98-13.11-5.64c-6.27-6.33-12.5-12.71-18.96-18.83c-1.21-1.14-3.45-1.67-5.2-1.65
		c-3.56,0.04-7.83-2.74-7.29-6.35c0.36-2.44,2.97-5.61,5.29-6.43c3.46-1.22,7.44,1.51,6.85,4.94c-1.27,7.37,4.65,9.8,8.04,13.79
		c4.41,5.2,9.67,9.68,14.36,14.65c2.19,2.32,4.37,3.54,7.72,3.42C1648.3,372.8,1655.8,372.99,1663.3,372.99z"/>
	<path d="M1299.95,433.54c-2.98,2.98-4.68,5.82-7.11,6.75c-1.79,0.69-5.66-0.4-6.65-1.94c-2.76-4.34-6.61-4.36-10.78-4.36
		c-10.51,0.02-21.02-0.08-31.52,0.18c-1.34,0.03-2.89,1.79-3.88,3.1c-2.23,2.92-5.23,4.95-8.45,3.26c-2.37-1.24-4.8-4.23-5.26-6.8
		c-0.57-3.18,1.45-6.41,5.1-7.45c3.66-1.04,6.57,0.1,8.91,3.29c0.87,1.18,2.73,2.29,4.15,2.31c12,0.18,24,0.18,35.99,0
		c1.43-0.02,3.54-1.05,4.15-2.23c2.05-3.97,5.59-4.56,8.77-3.24C1295.71,427.4,1297.2,430.43,1299.95,433.54z"/>
	<path d="M621.02,645.32c2.05-1.99,3.81-4.81,6.26-5.68c1.81-0.65,5.66,0.54,6.62,2.11c2.74,4.48,6.69,4.29,10.81,4.24
		c9.94-0.12,19.88-0.66,29.8-0.3c3.18,0.12,3.98-1.34,5.82-3.02c2.04-1.87,5.64-3.7,7.94-3.12c2.3,0.58,4.93,3.96,5.43,6.5
		c0.61,3.1-1.26,6.35-4.88,7.6c-3.53,1.22-6.27-0.13-8.84-2.55c-1.34-1.26-3.09-2.92-4.68-2.95c-11.98-0.25-23.96-0.21-35.94-0.03
		c-1.41,0.02-3.46,1.16-4.08,2.36c-1.94,3.77-5.17,4.03-8.41,3.33C623.16,653.01,621.67,650.11,621.02,645.32z"/>
	<path d="M288.5,332.99c-8.49,0-16.98-0.16-25.46,0.11c-2.04,0.07-4.47,1.08-5.97,2.47c-5.49,5.09-10.79,10.4-15.86,15.9
		c-1.18,1.28-1.78,3.71-1.6,5.5c0.39,3.78-2.36,8.36-6.04,7.57c-2.5-0.54-5.45-3.53-6.31-6.07c-1.24-3.63,2.03-7.02,5.89-6.32
		c3.71,0.68,5.39-0.83,7.67-3.29c5.18-5.59,10.81-10.78,16.46-15.91c1.23-1.12,3.28-1.87,4.96-1.88
		c17.31-0.13,34.62-0.09,51.93-0.07c2.47,0,4.52,0.19,5.97-2.85c1.54-3.23,6.45-3.43,9.18-1.06c2.22,1.92,2.3,6.61,0.15,8.92
		c-2.67,2.88-6.55,3.11-8.92-0.15c-1.97-2.71-4.23-2.96-7.1-2.92C305.14,333.06,296.82,332.99,288.5,332.99z"/>
	<path d="M1684.32,727.02c-1.28,0.99-2.65,1.88-3.81,3c-5.87,5.64-11.58,11.45-17.58,16.94c-1.33,1.22-3.59,1.96-5.43,1.97
		c-17.31,0.15-34.62,0.11-51.93,0.07c-2.35-0.01-4.19,0.03-5.61,2.64c-1.82,3.35-6.09,3.7-9.05,1.34c-2.54-2.02-2.64-6.7-0.2-9.17
		c2.73-2.77,6.54-2.85,8.9,0.53c1.74,2.49,3.64,2.72,6.2,2.71c16.98-0.06,33.96,0.06,50.93-0.15c2.16-0.03,4.76-1.18,6.37-2.66
		c5.51-5.06,10.75-10.43,15.89-15.87c1.08-1.14,2.21-3.51,1.72-4.62c-1.62-3.72,0.43-5.86,2.88-7.42c2.43-1.55,5.6-1.57,7.24,1.23
		c1.19,2.04,2.46,5.35,1.59,6.96c-1.13,2.1-4.34,3.08-6.66,4.54C1685.29,728.37,1684.8,727.69,1684.32,727.02z"/>
	<path d="M1283.96,540.38c-2.74,2.76-4.24,5.4-6.34,6.04c-1.78,0.54-4.3-1.15-6.43-2.01c-1.64-0.67-3.17-2.28-4.75-2.3
		c-18.31-0.17-36.61-0.16-54.92-0.01c-1.44,0.01-3.17,1.11-4.25,2.21c-3.06,3.13-6.55,3.82-9.05,1.4c-2.82-2.73-3-7.5-0.38-9.64
		c3.37-2.75,6.95-2.16,9.89,1.1c1.21,1.34,3.27,2.7,4.95,2.72c17.47,0.2,34.95,0.22,52.42-0.02c1.99-0.03,3.9-2.15,5.96-3.04
		c2.21-0.96,4.75-2.54,6.79-2.12C1279.8,535.09,1281.27,537.73,1283.96,540.38z"/>
	<path d="M636.05,539.68c2.72-2.78,4.2-5.43,6.3-6.08c1.78-0.55,4.32,1.08,6.44,1.97c1.49,0.62,2.82,2.31,4.24,2.32
		c18.64,0.16,37.28,0.15,55.92,0.01c1.28-0.01,2.79-1.15,3.77-2.17c3.02-3.16,6.55-3.84,9.04-1.47c2.83,2.69,3.05,7.51,0.45,9.66
		c-3.31,2.74-6.96,2.13-9.93-1.04c-1.33-1.41-3.57-2.74-5.42-2.77c-17.31-0.21-34.62-0.23-51.92,0.02c-2,0.03-3.93,2.11-5.99,3.01
		c-2.21,0.96-4.73,2.58-6.76,2.18C640.24,544.94,638.75,542.3,636.05,539.68z"/>
	<path d="M1333.58,675.01c-4.35,0.02-6.99-3.19-6.56-7.3c0.18-1.75-0.21-4.18-1.33-5.34c-9.21-9.51-18.6-18.85-28.13-28.04
		c-0.94-0.91-3.32-0.12-4.78-0.73c-2.35-0.97-5.37-1.95-6.47-3.86c-0.97-1.68-0.53-5.94,0.76-6.76c2.05-1.31,5.48-1.38,8.03-0.76
		c3.05,0.74,3.21,3.59,2.7,6.54c-0.25,1.43,0.19,3.54,1.16,4.52c9.41,9.67,18.95,19.22,28.63,28.62c1.04,1.01,3.29,1.15,4.94,1.06
		c3.87-0.19,7.14,2.08,7.46,5.59C1340.31,672.1,1337.44,674.99,1333.58,675.01z"/>
	<path d="M586.66,404.99c4.32,0.05,6.81,3.28,6.2,7.52c-0.21,1.49-0.02,3.64,0.91,4.59c9.47,9.72,19.09,19.3,28.81,28.77
		c0.83,0.81,2.72,0.42,4.01,0.89c2.49,0.91,5.56,1.45,7.15,3.25c1.81,2.04,1.94,5.93-0.89,7.26c-2.41,1.13-5.84,0.79-8.58,0.11
		c-1.09-0.27-2.6-3.73-2.06-4.81c1.9-3.79-0.59-5.46-2.65-7.52c-8.83-8.84-17.6-17.74-26.59-26.42c-1.18-1.14-3.49-1.66-5.23-1.57
		c-4.09,0.21-7.57-2.17-7.73-5.85C579.86,407.59,582.68,404.95,586.66,404.99z"/>
</g>
</svg>
